<svg viewBox="0 0 500 500" xmlns="http://www.w3.org/2000/svg">
  <defs>
    <linearGradient id="g" x1="0" y1="0" x2="1" y2="1">
      <stop offset="0" stop-color="#4c1d95"/>
      <stop offset="1" stop-color="#8b5cf6"/>
    </linearGradient>
  </defs>
  <rect width="500" height="500" fill="url(#g)"/>
  <circle cx="250" cy="230" r="150" fill="#ffffff" opacity="0.08"/>
  <g fill="none" stroke="#ffffff" stroke-width="4" opacity="0.5">
    <path d="M110 140 h80 v40 M300 140 v60 h60 M110 320 h50 M350 300 v50 h-40"/>
  </g>
  <rect x="100" y="120" width="300" height="220" rx="10" fill="#ffffff" opacity="0.95"/>
  <rect x="130" y="145" width="80" height="80" fill="#4c1d95"/>
  <rect x="140" y="155" width="60" height="60" fill="none" stroke="#8b5cf6" stroke-width="4"/>
  <rect x="240" y="145" width="18" height="90" fill="#4c1d95"/>
  <rect x="266" y="145" width="18" height="90" fill="#4c1d95"/>
  <rect x="292" y="145" width="18" height="90" fill="#4c1d95"/>
  <rect x="318" y="145" width="18" height="90" fill="#4c1d95"/>
  <circle cx="115" cy="135" r="6" fill="#4c1d95"/>
  <circle cx="385" cy="135" r="6" fill="#4c1d95"/>
  <circle cx="115" cy="325" r="6" fill="#4c1d95"/>
  <circle cx="385" cy="325" r="6" fill="#4c1d95"/>
  <rect x="130" y="260" width="240" height="20" fill="#4c1d95"/>
  <rect x="130" y="290" width="150" height="16" fill="#4c1d95"/>
  <text x="250" y="440" text-anchor="middle" font-family="system-ui, sans-serif" font-size="30" font-weight="700" fill="#ffffff">PLACA-MÃE</text>
</svg>
